<mxfile host="app.diagrams.net" modified="2023-04-04T08:48:38.692Z" agent="Mozilla/5.0 (Windows NT 10.0; Win64; x64) AppleWebKit/537.36 (KHTML, like Gecko) Chrome/111.0.0.0 Safari/537.36 Edg/111.0.1661.62" etag="p6-HqSJW3a8RKGEEbPU1" version="21.1.4" type="github">
  <diagram name="第 1 页" id="OCfmxtt-8PpDBGdbzicF">
    <mxGraphModel dx="1877" dy="549" grid="1" gridSize="10" guides="1" tooltips="1" connect="1" arrows="1" fold="1" page="1" pageScale="1" pageWidth="827" pageHeight="1169" math="0" shadow="0">
      <root>
        <mxCell id="0" />
        <mxCell id="1" parent="0" />
        <mxCell id="fa8lKoPjjb-P8xJryvQL-1" value="&lt;b&gt;冷水机组控制监控系统&lt;/b&gt;&lt;br&gt;西门子wincc 7.5.2" style="rounded=0;whiteSpace=wrap;html=1;" vertex="1" parent="1">
          <mxGeometry x="310" y="120" width="160" height="60" as="geometry" />
        </mxCell>
        <mxCell id="fa8lKoPjjb-P8xJryvQL-8" style="edgeStyle=orthogonalEdgeStyle;rounded=0;orthogonalLoop=1;jettySize=auto;html=1;exitX=1;exitY=0;exitDx=0;exitDy=0;entryX=0.25;entryY=1;entryDx=0;entryDy=0;" edge="1" parent="1" source="fa8lKoPjjb-P8xJryvQL-2" target="fa8lKoPjjb-P8xJryvQL-1">
          <mxGeometry relative="1" as="geometry">
            <Array as="points">
              <mxPoint x="120" y="220" />
              <mxPoint x="120" y="200" />
              <mxPoint x="350" y="200" />
            </Array>
          </mxGeometry>
        </mxCell>
        <mxCell id="fa8lKoPjjb-P8xJryvQL-2" value="西门子PLC 01&lt;br&gt;S7-1214" style="whiteSpace=wrap;html=1;aspect=fixed;" vertex="1" parent="1">
          <mxGeometry x="60" y="220" width="80" height="80" as="geometry" />
        </mxCell>
        <mxCell id="fa8lKoPjjb-P8xJryvQL-6" style="edgeStyle=orthogonalEdgeStyle;rounded=0;orthogonalLoop=1;jettySize=auto;html=1;exitX=0.75;exitY=0;exitDx=0;exitDy=0;entryX=0.5;entryY=1;entryDx=0;entryDy=0;" edge="1" parent="1" source="fa8lKoPjjb-P8xJryvQL-3" target="fa8lKoPjjb-P8xJryvQL-2">
          <mxGeometry relative="1" as="geometry">
            <Array as="points">
              <mxPoint x="55" y="325" />
              <mxPoint x="100" y="325" />
            </Array>
          </mxGeometry>
        </mxCell>
        <mxCell id="fa8lKoPjjb-P8xJryvQL-3" value="高压雾化机01" style="shape=parallelogram;perimeter=parallelogramPerimeter;whiteSpace=wrap;html=1;fixedSize=1;" vertex="1" parent="1">
          <mxGeometry x="-20" y="360" width="100" height="40" as="geometry" />
        </mxCell>
        <mxCell id="fa8lKoPjjb-P8xJryvQL-7" style="edgeStyle=orthogonalEdgeStyle;rounded=0;orthogonalLoop=1;jettySize=auto;html=1;exitX=0.5;exitY=0;exitDx=0;exitDy=0;entryX=0.75;entryY=1;entryDx=0;entryDy=0;" edge="1" parent="1" source="fa8lKoPjjb-P8xJryvQL-4" target="fa8lKoPjjb-P8xJryvQL-2">
          <mxGeometry relative="1" as="geometry" />
        </mxCell>
        <mxCell id="fa8lKoPjjb-P8xJryvQL-4" value="高压雾化机02" style="shape=parallelogram;perimeter=parallelogramPerimeter;whiteSpace=wrap;html=1;fixedSize=1;" vertex="1" parent="1">
          <mxGeometry x="80" y="360" width="100" height="40" as="geometry" />
        </mxCell>
        <mxCell id="fa8lKoPjjb-P8xJryvQL-39" style="edgeStyle=orthogonalEdgeStyle;rounded=0;orthogonalLoop=1;jettySize=auto;html=1;exitX=0.5;exitY=0;exitDx=0;exitDy=0;entryX=0.5;entryY=1;entryDx=0;entryDy=0;" edge="1" parent="1" source="fa8lKoPjjb-P8xJryvQL-9" target="fa8lKoPjjb-P8xJryvQL-1">
          <mxGeometry relative="1" as="geometry" />
        </mxCell>
        <mxCell id="fa8lKoPjjb-P8xJryvQL-9" value="西门子PLC 02&lt;br&gt;(S7-1214)" style="whiteSpace=wrap;html=1;aspect=fixed;" vertex="1" parent="1">
          <mxGeometry x="340" y="220" width="80" height="80" as="geometry" />
        </mxCell>
        <mxCell id="fa8lKoPjjb-P8xJryvQL-10" style="edgeStyle=orthogonalEdgeStyle;rounded=0;orthogonalLoop=1;jettySize=auto;html=1;exitX=0.75;exitY=0;exitDx=0;exitDy=0;entryX=0.5;entryY=1;entryDx=0;entryDy=0;" edge="1" parent="1" source="fa8lKoPjjb-P8xJryvQL-11" target="fa8lKoPjjb-P8xJryvQL-9">
          <mxGeometry relative="1" as="geometry">
            <Array as="points">
              <mxPoint x="335" y="325" />
              <mxPoint x="380" y="325" />
            </Array>
          </mxGeometry>
        </mxCell>
        <mxCell id="fa8lKoPjjb-P8xJryvQL-11" value="高压雾化机01" style="shape=parallelogram;perimeter=parallelogramPerimeter;whiteSpace=wrap;html=1;fixedSize=1;" vertex="1" parent="1">
          <mxGeometry x="260" y="360" width="100" height="40" as="geometry" />
        </mxCell>
        <mxCell id="fa8lKoPjjb-P8xJryvQL-12" style="edgeStyle=orthogonalEdgeStyle;rounded=0;orthogonalLoop=1;jettySize=auto;html=1;exitX=0.5;exitY=0;exitDx=0;exitDy=0;entryX=0.75;entryY=1;entryDx=0;entryDy=0;" edge="1" parent="1" source="fa8lKoPjjb-P8xJryvQL-13" target="fa8lKoPjjb-P8xJryvQL-9">
          <mxGeometry relative="1" as="geometry" />
        </mxCell>
        <mxCell id="fa8lKoPjjb-P8xJryvQL-13" value="高压雾化机02" style="shape=parallelogram;perimeter=parallelogramPerimeter;whiteSpace=wrap;html=1;fixedSize=1;" vertex="1" parent="1">
          <mxGeometry x="360" y="360" width="100" height="40" as="geometry" />
        </mxCell>
        <mxCell id="fa8lKoPjjb-P8xJryvQL-14" value="西门子PLC 01&lt;br&gt;(S7-1214)" style="whiteSpace=wrap;html=1;aspect=fixed;" vertex="1" parent="1">
          <mxGeometry x="60" y="220" width="80" height="80" as="geometry" />
        </mxCell>
        <mxCell id="fa8lKoPjjb-P8xJryvQL-15" style="edgeStyle=orthogonalEdgeStyle;rounded=0;orthogonalLoop=1;jettySize=auto;html=1;exitX=0.75;exitY=0;exitDx=0;exitDy=0;entryX=0.5;entryY=1;entryDx=0;entryDy=0;" edge="1" parent="1" source="fa8lKoPjjb-P8xJryvQL-16" target="fa8lKoPjjb-P8xJryvQL-14">
          <mxGeometry relative="1" as="geometry">
            <Array as="points">
              <mxPoint x="55" y="325" />
              <mxPoint x="100" y="325" />
            </Array>
          </mxGeometry>
        </mxCell>
        <mxCell id="fa8lKoPjjb-P8xJryvQL-16" value="高压雾化机01" style="shape=parallelogram;perimeter=parallelogramPerimeter;whiteSpace=wrap;html=1;fixedSize=1;" vertex="1" parent="1">
          <mxGeometry x="-20" y="360" width="100" height="40" as="geometry" />
        </mxCell>
        <mxCell id="fa8lKoPjjb-P8xJryvQL-17" style="edgeStyle=orthogonalEdgeStyle;rounded=0;orthogonalLoop=1;jettySize=auto;html=1;exitX=0.5;exitY=0;exitDx=0;exitDy=0;entryX=0.75;entryY=1;entryDx=0;entryDy=0;" edge="1" parent="1" source="fa8lKoPjjb-P8xJryvQL-18" target="fa8lKoPjjb-P8xJryvQL-14">
          <mxGeometry relative="1" as="geometry" />
        </mxCell>
        <mxCell id="fa8lKoPjjb-P8xJryvQL-18" value="高压雾化机02" style="shape=parallelogram;perimeter=parallelogramPerimeter;whiteSpace=wrap;html=1;fixedSize=1;" vertex="1" parent="1">
          <mxGeometry x="80" y="360" width="100" height="40" as="geometry" />
        </mxCell>
        <mxCell id="fa8lKoPjjb-P8xJryvQL-29" value="西门子PLC 01&lt;br&gt;S7-1214" style="whiteSpace=wrap;html=1;aspect=fixed;" vertex="1" parent="1">
          <mxGeometry x="610" y="220" width="80" height="80" as="geometry" />
        </mxCell>
        <mxCell id="fa8lKoPjjb-P8xJryvQL-30" style="edgeStyle=orthogonalEdgeStyle;rounded=0;orthogonalLoop=1;jettySize=auto;html=1;exitX=0.75;exitY=0;exitDx=0;exitDy=0;entryX=0.5;entryY=1;entryDx=0;entryDy=0;" edge="1" parent="1" source="fa8lKoPjjb-P8xJryvQL-31" target="fa8lKoPjjb-P8xJryvQL-29">
          <mxGeometry relative="1" as="geometry">
            <Array as="points">
              <mxPoint x="605" y="325" />
              <mxPoint x="650" y="325" />
            </Array>
          </mxGeometry>
        </mxCell>
        <mxCell id="fa8lKoPjjb-P8xJryvQL-31" value="高压雾化机01" style="shape=parallelogram;perimeter=parallelogramPerimeter;whiteSpace=wrap;html=1;fixedSize=1;" vertex="1" parent="1">
          <mxGeometry x="530" y="360" width="100" height="40" as="geometry" />
        </mxCell>
        <mxCell id="fa8lKoPjjb-P8xJryvQL-32" style="edgeStyle=orthogonalEdgeStyle;rounded=0;orthogonalLoop=1;jettySize=auto;html=1;exitX=0.5;exitY=0;exitDx=0;exitDy=0;entryX=0.75;entryY=1;entryDx=0;entryDy=0;" edge="1" parent="1" source="fa8lKoPjjb-P8xJryvQL-33" target="fa8lKoPjjb-P8xJryvQL-29">
          <mxGeometry relative="1" as="geometry" />
        </mxCell>
        <mxCell id="fa8lKoPjjb-P8xJryvQL-33" value="高压雾化机02" style="shape=parallelogram;perimeter=parallelogramPerimeter;whiteSpace=wrap;html=1;fixedSize=1;" vertex="1" parent="1">
          <mxGeometry x="630" y="360" width="100" height="40" as="geometry" />
        </mxCell>
        <mxCell id="fa8lKoPjjb-P8xJryvQL-40" style="edgeStyle=orthogonalEdgeStyle;rounded=0;orthogonalLoop=1;jettySize=auto;html=1;exitX=0.5;exitY=0;exitDx=0;exitDy=0;entryX=0.872;entryY=1.07;entryDx=0;entryDy=0;entryPerimeter=0;" edge="1" parent="1" source="fa8lKoPjjb-P8xJryvQL-34" target="fa8lKoPjjb-P8xJryvQL-1">
          <mxGeometry relative="1" as="geometry" />
        </mxCell>
        <mxCell id="fa8lKoPjjb-P8xJryvQL-34" value="西门子PLC 03&lt;br&gt;(S7-1214)" style="whiteSpace=wrap;html=1;aspect=fixed;" vertex="1" parent="1">
          <mxGeometry x="610" y="220" width="80" height="80" as="geometry" />
        </mxCell>
        <mxCell id="fa8lKoPjjb-P8xJryvQL-35" style="edgeStyle=orthogonalEdgeStyle;rounded=0;orthogonalLoop=1;jettySize=auto;html=1;exitX=0.75;exitY=0;exitDx=0;exitDy=0;entryX=0.5;entryY=1;entryDx=0;entryDy=0;" edge="1" parent="1" source="fa8lKoPjjb-P8xJryvQL-36" target="fa8lKoPjjb-P8xJryvQL-34">
          <mxGeometry relative="1" as="geometry">
            <Array as="points">
              <mxPoint x="605" y="325" />
              <mxPoint x="650" y="325" />
            </Array>
          </mxGeometry>
        </mxCell>
        <mxCell id="fa8lKoPjjb-P8xJryvQL-36" value="高压雾化机01" style="shape=parallelogram;perimeter=parallelogramPerimeter;whiteSpace=wrap;html=1;fixedSize=1;" vertex="1" parent="1">
          <mxGeometry x="530" y="360" width="100" height="40" as="geometry" />
        </mxCell>
        <mxCell id="fa8lKoPjjb-P8xJryvQL-37" style="edgeStyle=orthogonalEdgeStyle;rounded=0;orthogonalLoop=1;jettySize=auto;html=1;exitX=0.5;exitY=0;exitDx=0;exitDy=0;entryX=0.75;entryY=1;entryDx=0;entryDy=0;" edge="1" parent="1" source="fa8lKoPjjb-P8xJryvQL-38" target="fa8lKoPjjb-P8xJryvQL-34">
          <mxGeometry relative="1" as="geometry" />
        </mxCell>
        <mxCell id="fa8lKoPjjb-P8xJryvQL-38" value="高压雾化机02" style="shape=parallelogram;perimeter=parallelogramPerimeter;whiteSpace=wrap;html=1;fixedSize=1;" vertex="1" parent="1">
          <mxGeometry x="630" y="360" width="100" height="40" as="geometry" />
        </mxCell>
      </root>
    </mxGraphModel>
  </diagram>
</mxfile>
